<svg width="20" height="20" viewBox="0 0 20 20" fill="none" xmlns="http://www.w3.org/2000/svg">
<path d="M0 6.77769C0 3.74898 2.45523 1.29382 5.48387 1.29382C6.82715 1.29382 8.05672 1.77753 9.00973 2.57968C9.58254 3.06183 10.4175 3.06183 10.9903 2.57968C11.9432 1.7775 13.1728 1.29382 14.5161 1.29382C17.5448 1.29382 20 3.74898 20 6.77769V6.6164C20 11.9346 13.5323 16.7313 10.9998 18.4056C10.3932 18.8066 9.60672 18.8066 9.0002 18.4056C6.46773 16.7313 0 11.9346 0 6.6164" fill="#FF6464"/>
<path d="M0 6.77799C0 6.75478 0.00320313 6.7324 0.00347656 6.70928C0.00300781 6.67838 0 6.64768 0 6.6167V6.77799Z" fill="#D2555A"/>
<path d="M4.48638 7.1378C4.48615 7.16276 4.48392 7.18694 4.48392 7.21198V7.03788C4.48392 7.07132 4.48607 7.10444 4.48638 7.1378C4.50764 4.52507 5.63603 2.32058 7.18974 1.56979C6.65267 1.39378 6.08111 1.2937 5.48502 1.2937C2.47955 1.2937 0.0418143 3.71218 0.00462675 6.70886C0.0791971 11.9901 6.48365 16.7409 9.00139 18.4055C9.25975 18.5763 9.55096 18.6698 9.84681 18.6951C7.76931 16.3606 4.53084 11.9538 4.48638 7.1378Z" fill="#D2555A"/>
<path d="M17.5599 7.26516C18.2512 7.26516 18.8116 6.70474 18.8116 6.01344C18.8116 5.32213 18.2512 4.76172 17.5599 4.76172C16.8686 4.76172 16.3081 5.32213 16.3081 6.01344C16.3081 6.70474 16.8686 7.26516 17.5599 7.26516Z" fill="#FF8B8B"/>
<path d="M15.9548 4.4088C16.3868 4.4088 16.7371 4.05854 16.7371 3.62646C16.7371 3.19438 16.3868 2.84412 15.9548 2.84412C15.5227 2.84412 15.1724 3.19438 15.1724 3.62646C15.1724 4.05854 15.5227 4.4088 15.9548 4.4088Z" fill="#FFC1C1"/>
</svg>
