<svg width="20" height="20" viewBox="0 0 20 20" fill="none" xmlns="http://www.w3.org/2000/svg">
<path d="M19.367 4.98291V15.0165H0.632664V4.98291H19.367Z" fill="#58935E"/>
<path d="M16.9418 6.21094H3.01914C3.01914 6.91406 2.46094 7.43672 1.79688 7.45625V12.5437C2.46094 12.5633 3.01914 13.125 3.01914 13.8281H16.9418C16.9418 13.125 17.4609 12.5633 18.125 12.5437V7.45625C17.4609 7.43672 16.9418 6.91406 16.9418 6.21094Z" fill="#7FD695"/>
<path d="M16.1327 9.20215C16.2905 9.20215 16.4447 9.24893 16.5759 9.33658C16.7071 9.42422 16.8093 9.5488 16.8697 9.69455C16.9301 9.84031 16.9459 10.0007 16.9151 10.1554C16.8843 10.3101 16.8083 10.4523 16.6968 10.5638C16.5852 10.6754 16.4431 10.7514 16.2884 10.7821C16.1336 10.8129 15.9732 10.7971 15.8275 10.7367C15.6817 10.6764 15.5572 10.5741 15.4695 10.443C15.3819 10.3118 15.3351 10.1576 15.3351 9.9998C15.3351 9.89505 15.3557 9.79131 15.3958 9.69452C15.4358 9.59774 15.4946 9.50979 15.5687 9.43572C15.6427 9.36164 15.7307 9.30289 15.8275 9.26281C15.9242 9.22274 16.028 9.20212 16.1327 9.20215Z" fill="#61B257"/>
<path d="M9.99999 6.2511C10.7415 6.2511 11.4664 6.47099 12.0829 6.88296C12.6995 7.29493 13.18 7.88048 13.4638 8.56556C13.7476 9.25064 13.8218 10.0045 13.6772 10.7318C13.5325 11.459 13.1754 12.1271 12.6511 12.6514C12.1267 13.1758 11.4587 13.5328 10.7314 13.6775C10.0041 13.8222 9.2503 13.7479 8.56522 13.4642C7.88014 13.1804 7.29459 12.6998 6.88262 12.0833C6.47065 11.4667 6.25076 10.7418 6.25076 10.0003C6.25075 9.50797 6.34772 9.02043 6.53613 8.56554C6.72454 8.11066 7.00071 7.69735 7.34886 7.3492C7.69701 7.00105 8.11032 6.72488 8.56521 6.53647C9.02009 6.34806 9.50763 6.25109 9.99999 6.2511ZM12.723 10.0003C12.723 9.46175 12.5633 8.93528 12.2641 8.48748C11.9649 8.03967 11.5396 7.69065 11.0421 7.48455C10.5445 7.27845 9.99696 7.22453 9.46874 7.32959C8.94052 7.43466 8.45532 7.69401 8.0745 8.07484C7.69367 8.45566 7.43433 8.94086 7.32926 9.46908C7.22419 9.9973 7.27811 10.5448 7.48421 11.0424C7.69032 11.54 8.03934 11.9652 8.48714 12.2645C8.93494 12.5637 9.46142 12.7234 9.99999 12.7234C10.7222 12.7234 11.4148 12.4365 11.9255 11.9258C12.4361 11.4151 12.723 10.7225 12.723 10.0003Z" fill="#61B257"/>
<path d="M3.86731 9.20215C4.02508 9.20207 4.17934 9.24879 4.31057 9.33639C4.44179 9.42399 4.54409 9.54854 4.60452 9.69428C4.66496 9.84003 4.68081 10.0004 4.65007 10.1552C4.61934 10.3099 4.5434 10.4521 4.43186 10.5637C4.32032 10.6753 4.1782 10.7513 4.02345 10.7821C3.86871 10.8129 3.70831 10.7971 3.56254 10.7368C3.41676 10.6764 3.29216 10.5742 3.20449 10.443C3.11683 10.3118 3.07004 10.1576 3.07004 9.99981C3.07001 9.78831 3.15398 9.58547 3.30349 9.43588C3.45301 9.2863 3.65581 9.20222 3.86731 9.20215Z" fill="#61B257"/>
<path d="M2.96875 12.5437V7.45625C3.63281 7.43672 4.19102 6.91406 4.19102 6.21094H3.01914C3.01914 6.91406 2.46094 7.43672 1.79688 7.45625V12.5437C2.46094 12.5633 3.01914 13.125 3.01914 13.8281H4.19102C4.19102 13.125 3.63281 12.5633 2.96875 12.5437Z" fill="#6DB57C"/>
<path d="M10.0002 9.73808C9.90925 9.73808 9.82039 9.71112 9.74481 9.66062C9.66923 9.61012 9.61032 9.53833 9.57553 9.45435C9.54075 9.37037 9.53165 9.27796 9.54938 9.1888C9.56711 9.09965 9.61089 9.01775 9.67516 8.95347C9.73944 8.8892 9.82134 8.84542 9.91049 8.82769C9.99965 8.80995 10.0921 8.81906 10.176 8.85384C10.26 8.88863 10.3318 8.94754 10.3823 9.02312C10.4328 9.0987 10.4598 9.18756 10.4598 9.27847C10.4598 9.34063 10.4845 9.40024 10.5284 9.44419C10.5724 9.48815 10.632 9.51284 10.6941 9.51284C10.7563 9.51284 10.8159 9.48815 10.8599 9.44419C10.9038 9.40024 10.9285 9.34063 10.9285 9.27847C10.9283 9.0731 10.8601 8.8736 10.7345 8.71107C10.609 8.54855 10.4332 8.43215 10.2345 8.38003V8.16675C10.2345 8.10459 10.2098 8.04497 10.1659 8.00102C10.1219 7.95707 10.0623 7.93237 10.0002 7.93237C9.938 7.93237 9.87838 7.95707 9.83443 8.00102C9.79047 8.04497 9.76578 8.10459 9.76578 8.16675V8.38003C9.54731 8.437 9.35709 8.57163 9.23072 8.75872C9.10435 8.94582 9.05049 9.17256 9.07922 9.3965C9.10795 9.62044 9.21731 9.82623 9.38682 9.97536C9.55633 10.1245 9.77438 10.2067 10.0002 10.2067C10.0911 10.2067 10.1799 10.2337 10.2555 10.2842C10.3311 10.3347 10.39 10.4064 10.4248 10.4904C10.4596 10.5744 10.4687 10.6668 10.4509 10.756C10.4332 10.8451 10.3894 10.927 10.3251 10.9913C10.2609 11.0556 10.179 11.0994 10.0898 11.1171C10.0007 11.1348 9.90825 11.1257 9.82427 11.0909C9.74029 11.0562 9.66851 10.9972 9.61801 10.9217C9.5675 10.8461 9.54055 10.7572 9.54055 10.6663C9.54055 10.6042 9.51586 10.5445 9.4719 10.5006C9.42795 10.4566 9.36833 10.4319 9.30617 10.4319C9.24401 10.4319 9.1844 10.4566 9.14045 10.5006C9.09649 10.5445 9.0718 10.6042 9.0718 10.6663C9.07203 10.8717 9.14024 11.0712 9.26578 11.2337C9.39132 11.3963 9.56714 11.5126 9.76578 11.5648V11.833C9.76578 11.8951 9.79047 11.9547 9.83443 11.9987C9.87838 12.0426 9.938 12.0673 10.0002 12.0673C10.0623 12.0673 10.1219 12.0426 10.1659 11.9987C10.2098 11.9547 10.2345 11.8951 10.2345 11.833V11.5646C10.453 11.5077 10.6432 11.373 10.7696 11.1859C10.896 10.9988 10.9498 10.7721 10.9211 10.5482C10.8924 10.3242 10.783 10.1184 10.6135 9.96931C10.444 9.82017 10.2259 9.73793 10.0002 9.73796V9.73808Z" fill="#EADF53"/>
</svg>
