<svg width="16" height="18" viewBox="0 0 16 18" fill="none" xmlns="http://www.w3.org/2000/svg">
<path fill-rule="evenodd" clip-rule="evenodd" d="M13.5892 6.33023C13.5892 7.37684 13.8658 7.99373 14.4746 8.70462C14.9359 9.22834 15.0833 9.90062 15.0833 10.63C15.0833 11.3585 14.844 12.0501 14.3644 12.6116C13.7366 13.2847 12.8513 13.7144 11.9477 13.7891C10.6383 13.9007 9.32804 13.9947 8.0004 13.9947C6.67194 13.9947 5.36253 13.9385 4.05312 13.7891C3.1487 13.7144 2.26334 13.2847 1.63638 12.6116C1.15684 12.0501 0.916656 11.3585 0.916656 10.63C0.916656 9.90062 1.06491 9.22834 1.5254 8.70462C2.15319 7.99373 2.41159 7.37684 2.41159 6.33023V5.97521C2.41159 4.57358 2.7611 3.65706 3.48082 2.75984C4.55088 1.45137 6.26612 0.666626 7.96314 0.666626H8.03767C9.77113 0.666626 11.5419 1.48914 12.5937 2.85385C13.2762 3.7326 13.5892 4.6105 13.5892 5.97521V6.33023ZM5.56138 15.7173C5.56138 15.2977 5.9465 15.1055 6.30263 15.0232C6.71922 14.9351 9.25771 14.9351 9.67431 15.0232C10.0304 15.1055 10.4156 15.2977 10.4156 15.7173C10.3949 16.1169 10.1605 16.471 9.83664 16.696C9.41673 17.0233 8.92394 17.2306 8.40879 17.3053C8.12388 17.3422 7.84394 17.3431 7.56898 17.3053C7.053 17.2306 6.56021 17.0233 6.14113 16.6951C5.81647 16.471 5.58208 16.1169 5.56138 15.7173Z" fill="#2B2B2B"/>
</svg>
