<svg width="13" height="13" viewBox="0 0 13 13" fill="none" xmlns="http://www.w3.org/2000/svg">
<path fill-rule="evenodd" clip-rule="evenodd" d="M11.4792 5.82468C11.6518 5.9972 11.7587 6.23532 11.7578 6.4986C11.7578 7.02515 11.3319 7.45106 10.8053 7.45106L2.19357 7.45106C1.66702 7.45106 1.24111 7.02515 1.2411 6.49859C1.24111 5.97204 1.66702 5.54613 2.19357 5.54613L10.8053 5.54613C11.0686 5.54523 11.3067 5.65216 11.4792 5.82468Z" fill="#FCFCFC"/>
<path fill-rule="evenodd" clip-rule="evenodd" d="M7.17427 1.51633C7.34679 1.68885 7.45372 1.92697 7.45282 2.19025L7.45192 10.8101C7.45192 11.3366 7.026 11.7626 6.49945 11.7626C5.972 11.7617 5.54608 11.3357 5.54698 10.8101L5.54788 2.19025C5.54788 1.66369 5.9738 1.23778 6.50035 1.23778C6.76363 1.23688 7.00264 1.34471 7.17427 1.51633Z" fill="#FCFCFC"/>
</svg>
