<svg width="16" height="18" viewBox="0 0 16 18" fill="none" xmlns="http://www.w3.org/2000/svg">
<path fill-rule="evenodd" clip-rule="evenodd" d="M15.0019 10.3167C15.2999 10.4751 15.5299 10.7251 15.6917 10.9751C16.0068 11.4917 15.9812 12.1251 15.6746 12.6834L15.0785 13.6834C14.7634 14.2167 14.1758 14.5501 13.5711 14.5501C13.273 14.5501 12.9409 14.4667 12.6684 14.3001C12.447 14.1584 12.1915 14.1084 11.9189 14.1084C11.0758 14.1084 10.369 14.8001 10.3434 15.6251C10.3434 16.5834 9.55993 17.3334 8.58055 17.3334H7.42233C6.43444 17.3334 5.65094 16.5834 5.65094 15.6251C5.63391 14.8001 4.92705 14.1084 4.08394 14.1084C3.8029 14.1084 3.54741 14.1584 3.3345 14.3001C3.06198 14.4667 2.72133 14.5501 2.43178 14.5501C1.8186 14.5501 1.23098 14.2167 0.915872 13.6834L0.328247 12.6834C0.013143 12.1417 -0.00388963 11.4917 0.311214 10.9751C0.447475 10.7251 0.702964 10.4751 0.992519 10.3167C1.23098 10.2001 1.38427 10.0084 1.52905 9.78341C1.95486 9.06675 1.69937 8.12508 0.975486 7.70008C0.132371 7.22508 -0.140151 6.16675 0.345279 5.34175L0.915872 4.35841C1.40982 3.53341 2.46584 3.24175 3.31747 3.72508C4.05839 4.12508 5.02073 3.85841 5.45507 3.15008C5.59133 2.91675 5.66797 2.66675 5.65094 2.41675C5.63391 2.09175 5.72759 1.78341 5.8894 1.53341C6.2045 1.01675 6.77509 0.683415 7.39678 0.666748H8.59758C9.22779 0.666748 9.79838 1.01675 10.1135 1.53341C10.2668 1.78341 10.369 2.09175 10.3434 2.41675C10.3264 2.66675 10.403 2.91675 10.5393 3.15008C10.9736 3.85841 11.936 4.12508 12.6854 3.72508C13.5285 3.24175 14.5931 3.53341 15.0785 4.35841L15.6491 5.34175C16.143 6.16675 15.8705 7.22508 15.0189 7.70008C14.295 8.12508 14.0395 9.06675 14.4738 9.78341C14.6101 10.0084 14.7634 10.2001 15.0019 10.3167ZM5.5913 9.00847C5.5913 10.3168 6.67287 11.3585 8.00994 11.3585C9.347 11.3585 10.403 10.3168 10.403 9.00847C10.403 7.70013 9.347 6.65013 8.00994 6.65013C6.67287 6.65013 5.5913 7.70013 5.5913 9.00847Z" fill="#2B2B2B"/>
</svg>
