<svg width="10" height="8" viewBox="0 0 10 8" fill="none" xmlns="http://www.w3.org/2000/svg">
<path d="M7.46612 4.96675C7.3582 5.07133 7.30862 5.22258 7.3332 5.37091L7.70362 7.42091C7.73487 7.59466 7.66153 7.7705 7.51612 7.87092C7.37362 7.97508 7.18403 7.98758 7.02862 7.90425L5.1832 6.94175C5.11903 6.90758 5.04778 6.88925 4.97487 6.88717H4.86195C4.82278 6.893 4.78445 6.9055 4.74945 6.92466L2.90362 7.89175C2.81237 7.93758 2.70903 7.95383 2.60778 7.93758C2.36112 7.89092 2.19653 7.65592 2.23695 7.408L2.60778 5.358C2.63237 5.20842 2.58278 5.05633 2.47487 4.95008L0.970284 3.49175C0.84445 3.36966 0.8007 3.18633 0.8582 3.02091C0.914034 2.85591 1.05653 2.7355 1.22862 2.70841L3.29945 2.408C3.45695 2.39175 3.59528 2.29591 3.66612 2.15425L4.57862 0.283415C4.60028 0.241748 4.6282 0.203415 4.66195 0.170915L4.69945 0.141748C4.71903 0.120081 4.74153 0.102165 4.76653 0.0875814L4.81195 0.0709147L4.88278 0.041748H5.0582C5.21487 0.057998 5.35278 0.151748 5.42487 0.291748L6.34945 2.15425C6.41612 2.2905 6.5457 2.38508 6.69528 2.408L8.76612 2.70841C8.94112 2.73341 9.08737 2.85425 9.14528 3.02091C9.19987 3.188 9.15278 3.37133 9.02445 3.49175L7.46612 4.96675Z" fill="#FFCB55"/>
</svg>
